<mxfile host="app.diagrams.net" modified="2023-09-02T17:42:38.056Z" agent="Mozilla/5.0 (Windows NT 10.0; Win64; x64) AppleWebKit/537.36 (KHTML, like Gecko) Chrome/116.0.0.0 Safari/537.36" etag="UsZrP0kH8eP5PAybxp52" version="21.7.1" type="github">
  <diagram id="C5RBs43oDa-KdzZeNtuy" name="Page-1">
    <mxGraphModel dx="1434" dy="790" grid="1" gridSize="10" guides="1" tooltips="1" connect="1" arrows="1" fold="1" page="1" pageScale="1" pageWidth="827" pageHeight="1169" math="0" shadow="0">
      <root>
        <mxCell id="WIyWlLk6GJQsqaUBKTNV-0" />
        <mxCell id="WIyWlLk6GJQsqaUBKTNV-1" parent="WIyWlLk6GJQsqaUBKTNV-0" />
        <mxCell id="eLGHmhH-k5PyunCiGEUT-0" value="Field&lt;br&gt;&lt;br&gt;+value" style="rounded=0;whiteSpace=wrap;html=1;" vertex="1" parent="WIyWlLk6GJQsqaUBKTNV-1">
          <mxGeometry x="374" y="40" width="80" height="80" as="geometry" />
        </mxCell>
        <mxCell id="eLGHmhH-k5PyunCiGEUT-9" style="edgeStyle=orthogonalEdgeStyle;rounded=0;orthogonalLoop=1;jettySize=auto;html=1;entryX=0.088;entryY=1.05;entryDx=0;entryDy=0;entryPerimeter=0;" edge="1" parent="WIyWlLk6GJQsqaUBKTNV-1" source="eLGHmhH-k5PyunCiGEUT-3" target="eLGHmhH-k5PyunCiGEUT-0">
          <mxGeometry relative="1" as="geometry">
            <mxPoint x="340" y="140" as="targetPoint" />
          </mxGeometry>
        </mxCell>
        <mxCell id="eLGHmhH-k5PyunCiGEUT-3" value="Phone&lt;br&gt;&lt;br&gt;+value" style="rounded=0;whiteSpace=wrap;html=1;" vertex="1" parent="WIyWlLk6GJQsqaUBKTNV-1">
          <mxGeometry x="40" y="200" width="120" height="60" as="geometry" />
        </mxCell>
        <mxCell id="eLGHmhH-k5PyunCiGEUT-12" style="edgeStyle=orthogonalEdgeStyle;rounded=0;orthogonalLoop=1;jettySize=auto;html=1;entryX=0.25;entryY=1;entryDx=0;entryDy=0;" edge="1" parent="WIyWlLk6GJQsqaUBKTNV-1" source="eLGHmhH-k5PyunCiGEUT-4" target="eLGHmhH-k5PyunCiGEUT-0">
          <mxGeometry relative="1" as="geometry">
            <mxPoint x="400" y="180" as="targetPoint" />
          </mxGeometry>
        </mxCell>
        <mxCell id="eLGHmhH-k5PyunCiGEUT-4" value="Name&lt;br&gt;&lt;br&gt;+value" style="rounded=0;whiteSpace=wrap;html=1;" vertex="1" parent="WIyWlLk6GJQsqaUBKTNV-1">
          <mxGeometry x="200" y="280" width="120" height="60" as="geometry" />
        </mxCell>
        <mxCell id="eLGHmhH-k5PyunCiGEUT-15" style="edgeStyle=orthogonalEdgeStyle;rounded=0;orthogonalLoop=1;jettySize=auto;html=1;entryX=0.5;entryY=1;entryDx=0;entryDy=0;" edge="1" parent="WIyWlLk6GJQsqaUBKTNV-1" source="eLGHmhH-k5PyunCiGEUT-5" target="eLGHmhH-k5PyunCiGEUT-0">
          <mxGeometry relative="1" as="geometry" />
        </mxCell>
        <mxCell id="eLGHmhH-k5PyunCiGEUT-5" value="Birthday&lt;br&gt;&lt;br&gt;+value" style="rounded=0;whiteSpace=wrap;html=1;" vertex="1" parent="WIyWlLk6GJQsqaUBKTNV-1">
          <mxGeometry x="360" y="360" width="120" height="60" as="geometry" />
        </mxCell>
        <mxCell id="eLGHmhH-k5PyunCiGEUT-14" style="edgeStyle=orthogonalEdgeStyle;rounded=0;orthogonalLoop=1;jettySize=auto;html=1;entryX=0.75;entryY=1;entryDx=0;entryDy=0;" edge="1" parent="WIyWlLk6GJQsqaUBKTNV-1" source="eLGHmhH-k5PyunCiGEUT-6" target="eLGHmhH-k5PyunCiGEUT-0">
          <mxGeometry relative="1" as="geometry" />
        </mxCell>
        <mxCell id="eLGHmhH-k5PyunCiGEUT-6" value="Email&lt;br&gt;&lt;br&gt;+value" style="rounded=0;whiteSpace=wrap;html=1;" vertex="1" parent="WIyWlLk6GJQsqaUBKTNV-1">
          <mxGeometry x="520" y="280" width="120" height="60" as="geometry" />
        </mxCell>
        <mxCell id="eLGHmhH-k5PyunCiGEUT-11" style="edgeStyle=orthogonalEdgeStyle;rounded=0;orthogonalLoop=1;jettySize=auto;html=1;entryX=0.888;entryY=1.025;entryDx=0;entryDy=0;entryPerimeter=0;" edge="1" parent="WIyWlLk6GJQsqaUBKTNV-1" source="eLGHmhH-k5PyunCiGEUT-7" target="eLGHmhH-k5PyunCiGEUT-0">
          <mxGeometry relative="1" as="geometry">
            <mxPoint x="520" y="160" as="targetPoint" />
          </mxGeometry>
        </mxCell>
        <mxCell id="eLGHmhH-k5PyunCiGEUT-7" value="Address&lt;br&gt;&lt;br&gt;+value" style="rounded=0;whiteSpace=wrap;html=1;" vertex="1" parent="WIyWlLk6GJQsqaUBKTNV-1">
          <mxGeometry x="680" y="200" width="120" height="60" as="geometry" />
        </mxCell>
        <mxCell id="eLGHmhH-k5PyunCiGEUT-8" value="Record&lt;br&gt;&lt;br&gt;+add_phone()&lt;br&gt;+add_email()&lt;br&gt;+add_birthday()&lt;br&gt;+add_address()&lt;br&gt;+change_phone()&lt;br&gt;+remove_phone()" style="whiteSpace=wrap;html=1;aspect=fixed;" vertex="1" parent="WIyWlLk6GJQsqaUBKTNV-1">
          <mxGeometry x="160" y="440" width="200" height="200" as="geometry" />
        </mxCell>
        <mxCell id="eLGHmhH-k5PyunCiGEUT-16" value="AddressBook&lt;br&gt;&lt;br&gt;+filename&lt;br&gt;&lt;br&gt;+add_record()&lt;br&gt;+show_all_records()&lt;br&gt;+search_record_by_name()&lt;br&gt;+search_record()&lt;br&gt;+birthdays()&lt;br&gt;+iterator()&lt;br&gt;+del_record()&lt;br&gt;+save_to_file()&lt;br&gt;+read_from_file()" style="whiteSpace=wrap;html=1;aspect=fixed;" vertex="1" parent="WIyWlLk6GJQsqaUBKTNV-1">
          <mxGeometry x="480" y="440" width="200" height="200" as="geometry" />
        </mxCell>
        <mxCell id="eLGHmhH-k5PyunCiGEUT-18" value="" style="endArrow=classic;startArrow=classic;html=1;rounded=0;exitX=1.01;exitY=0.455;exitDx=0;exitDy=0;exitPerimeter=0;entryX=-0.015;entryY=0.455;entryDx=0;entryDy=0;entryPerimeter=0;" edge="1" parent="WIyWlLk6GJQsqaUBKTNV-1" source="eLGHmhH-k5PyunCiGEUT-8" target="eLGHmhH-k5PyunCiGEUT-16">
          <mxGeometry width="50" height="50" relative="1" as="geometry">
            <mxPoint x="390" y="430" as="sourcePoint" />
            <mxPoint x="440" y="380" as="targetPoint" />
          </mxGeometry>
        </mxCell>
      </root>
    </mxGraphModel>
  </diagram>
</mxfile>
